<?xml version="1.0" standalone="no"?>
<svg xmlns:xlink="http://www.w3.org/1999/xlink" width="100%" height="100%" viewBox="0 0 100, 100" version="1.1" xmlns="http://www.w3.org/2000/svg"><circle cx="31.988915354644604" cy="52.982974404785296" r="1" fill="red"/><circle cx="67.5282810192578" cy="37.134794282068775" r="1" fill="red"/><circle cx="30.760206632282184" cy="56.49642086910547" r="1" fill="red"/><circle cx="16.578673424628974" cy="64.73630913807595" r="1" fill="red"/><circle cx="73.27171052681135" cy="32.647337883350644" r="1" fill="red"/><circle cx="61.55892495865064" cy="41.14810990135237" r="1" fill="red"/><circle cx="76.89237712775548" cy="32.480973703659686" r="1" fill="red"/><circle cx="64.33686648620026" cy="41.09815208955533" r="1" fill="red"/><circle cx="42.77436327520696" cy="46.12692323430686" r="1" fill="red"/><circle cx="45.43106887847888" cy="51.326313857535744" r="1" fill="red"/><circle cx="34.03999996069509" cy="54.20293541466441" r="1" fill="red"/><circle cx="62.67650277623168" cy="41.28091068292113" r="1" fill="red"/><circle cx="17.47665440398237" cy="65.8848512163537" r="1" fill="red"/><circle cx="86.83435757685999" cy="25.715962567525896" r="1" fill="red"/><circle cx="61.17340708527846" cy="39.213905030094296" r="1" fill="red"/><circle cx="15.90833589174908" cy="61.80737170908173" r="1" fill="red"/><circle cx="46.82309211334686" cy="49.150490822610216" r="1" fill="red"/><circle cx="56.687235247981725" cy="42.99441179740378" r="1" fill="red"/><circle cx="16.077246961277762" cy="66.02516515666308" r="1" fill="red"/><circle cx="60.54364644573729" cy="36.81153923927144" r="1" fill="red"/><circle cx="43.229489482318826" cy="47.177065038017986" r="1" fill="red"/><circle cx="52.27856168850656" cy="48.77601771570047" r="1" fill="red"/><circle cx="10.242850947643738" cy="66.56865995530138" r="1" fill="red"/><circle cx="89.27270235317643" cy="24.985908642204148" r="1" fill="red"/><circle cx="66.22101637802403" cy="38.576031479444254" r="1" fill="red"/><circle cx="14.487114451607908" cy="65.52953105734912" r="1" fill="red"/><circle cx="32.31525289215887" cy="54.480679416095825" r="1" fill="red"/><circle cx="19.801923429500594" cy="60.488844836326415" r="1" fill="red"/><circle cx="69.93562745564307" cy="32.914731680578605" r="1" fill="red"/><circle cx="50.17752365972545" cy="44.73191309556772" r="1" fill="red"/><circle cx="69.49518476641346" cy="39.134305999973705" r="1" fill="red"/><circle cx="57.06608025813227" cy="40.80253614831517" r="1" fill="red"/><circle cx="19.79565889280476" cy="63.08943185600664" r="1" fill="red"/><circle cx="59.0877082894734" cy="37.520256262069154" r="1" fill="red"/><circle cx="9.043110327983566" cy="63.51448017335011" r="1" fill="red"/><circle cx="69.01612195433523" cy="32.7722719418678" r="1" fill="red"/><circle cx="27.082687253713093" cy="57.67689146114161" r="1" fill="red"/><circle cx="12.050126402401478" cy="67.06256862806102" r="1" fill="red"/><circle cx="15.945194819144115" cy="66.61202648508828" r="1" fill="red"/><circle cx="47.80531749390122" cy="44.159204672243746" r="1" fill="red"/><circle cx="44.554606004959595" cy="48.04256759582045" r="1" fill="red"/><circle cx="13.632186427605589" cy="62.83661807089016" r="1" fill="red"/><circle cx="86.02958938532615" cy="27.561043280982833" r="1" fill="red"/><circle cx="9.200830843045749" cy="64.61942974602393" r="1" fill="red"/><circle cx="80.68165900862839" cy="31.71626754999255" r="1" fill="red"/><circle cx="88.13879977402478" cy="26.543466719939612" r="1" fill="red"/><circle cx="30.096419681323066" cy="51.645421951050416" r="1" fill="red"/><circle cx="48.353306999917" cy="47.511417613614725" r="1" fill="red"/><circle cx="27.190222943364024" cy="57.946214455127375" r="1" fill="red"/><circle cx="31.888223710364706" cy="56.97434899458267" r="1" fill="red"/><polyline points="31.988915354644604,54.83887565601104,67.5282810192578,37.069192823704434,30.760206632282184,55.45323001719225,16.578673424628974,62.543996621018835,73.27171052681135,34.19747806992767,61.55892495865064,40.05387085400801,76.89237712775548,32.3871447694556,64.33686648620026,38.66490009023321,42.77436327520696,49.44615169572985,45.43106887847888,48.1177988940939,34.03999996069509,53.813333352985794,62.67650277623168,39.4950819452175,17.47665440398237,62.09500613134216,86.83435757685999,27.416154544903335,61.17340708527846,40.2466297906941,15.90833589174908,62.87916538745879,46.82309211334686,47.4217872766599,56.687235247981725,42.48971570934247,16.077246961277762,62.79470985269444,60.54364644573729,40.561510110464695,43.229489482318826,49.218588592173916,52.27856168850656,44.69405248908006,10.242850947643738,65.71190785951147,89.27270235317643,26.19698215674512,66.22101637802403,37.72282514432131,14.487114451607908,63.58977610752938,32.31525289215887,54.675706887253895,19.801923429500594,60.932371618583026,69.93562745564307,35.8655196055118,50.17752365972545,45.74457150347061,69.49518476641346,36.0857409501266,57.06608025813227,42.30029320426719,19.79565889280476,60.93550388693097,59.0877082894734,41.28947918859664,9.043110327983566,66.31177816934155,69.01612195433523,36.32527235616572,27.082687253713093,57.29198970647678,12.050126402401478,64.80827013213259,15.945194819144115,62.86073592376127,47.80531749390122,46.93067458638273,44.554606004959595,48.55603033085353,13.632186427605589,64.01724011953054,86.02958938532615,27.818538640670265,9.200830843045749,66.23291791181045,80.68165900862839,30.492503829019135,88.13879977402478,26.76393344632094,30.096419681323066,55.785123492671794,48.353306999917,46.65667983337484,27.190222943364024,57.238221861651326,31.888223710364706,54.889221478150986" fill="none" stroke="blue" stroke-width="1"/></svg>