<?xml version="1.0" standalone="no"?>
<svg xmlns:xlink="http://www.w3.org/1999/xlink" width="100%" height="100%" viewBox="0 0 100, 100" version="1.1" xmlns="http://www.w3.org/2000/svg"><polyline points="0,50,1,49.52146316658011,2,49.04292633316024,3,48.56438949974036,4,48.085852666320484,5,47.607315832900596,6,47.12877899948072,7.000000000000001,46.65024216606084,8,46.171705332640954,9,45.69316849922108,10,45.2146316658012,11,44.736094832381326,12,44.25755799896144,13,43.779021165541565,14.000000000000002,43.300484332121684,15,42.821947498701796,16,42.34341066528192,17,41.864873831862035,18,41.38633699844216,19,40.90780016502228,20,40.42926333160241,21,39.95072649818252,22,39.47218966476264,23,38.993652831342764,24,38.51511599792288,25,38.036579164502996,26,37.55804233108311,27,37.079505497663234,28.000000000000004,36.60096866424335,28.999999999999996,36.12243183082347,30,35.64389499740359,31,35.16535816398372,32,34.68682133056383,33,34.20828449714395,34,33.729747663724076,35,33.25121083030419,36,32.772673996884315,37,32.294137163464434,38,31.815600330044557,39,31.337063496624673,40,30.85852666320479,41,30.379989829784915,42,29.90145299636503,43,29.422916162945157,44,28.944379329525272,45,28.4658424961054,46,27.987305662685515,47,27.508768829265627,48,27.030231995845753,49,26.55169516242587,50,26.073158329005995,51,25.59462149558611,52,25.116084662166237,53,24.637547828746353,54,24.15901099532647,55.00000000000001,23.680474161906595,56.00000000000001,23.20193732848671,56.99999999999999,22.723400495066837,57.99999999999999,22.244863661646953,59,21.76632682822708,60,21.287789994807195,61,20.80925316138731,62,20.330716327967437,63,19.85217949454755,64,19.373642661127676,65,18.89510582770779,66,18.416568994287918,67,17.938032160868033,68,17.45949532744815,69,16.980958494028275,70,16.50242166060839,71,16.023884827188517,72,15.545347993768633,73,15.06681116034876,74,14.588274326928873,75,14.10973749350899,76,13.631200660089116,77,13.152663826669231,78,12.674126993249358,79,12.195590159829472,80,11.717053326409598,81,11.238516492989714,82,10.75997965956983,83,10.281442826149956,84,9.802905992730071,85,9.324369159310198,86,8.845832325890314,87,8.367295492470427,88,7.888758659050554,89,7.41022182563067,90,6.931684992210796,91,6.453148158790912,92,5.974611325371038,93,5.496074491951153,94,5.017537658531268,95,4.539000825111394,96,4.06046399169151,97,3.581927158271636,98,3.1033903248517514,99,2.6248534914318777" fill="none" stroke="black" stroke-width="1"/><polyline points="0,50.95680779145299,1,50.77699483685698,2,53.31139174400422,3,53.65541306978281,4,53.993561538732415,5,52.04802791435961,6,50.72963647618629,7.000000000000001,46.579044672275835,8,48.26119983918118,9,47.08718323137283,10,45.572370435481005,11,46.995888549514866,12,47.30120628936725,13,47.299132195514325,14.000000000000002,48.82373702544862,15,50.215405799727584,16,48.02524325480649,17,47.375007423426766,18,47.72210555002992,19,47.61483556033427,20,49.125737392214376,21,47.45519760367548,22,48.2899549329492,23,49.79259214071799,24,45.4383717206815,25,43.91512326083393,26,45.25404832114557,27,45.56942968387998,28.000000000000004,42.58207022452073,28.999999999999996,43.46406141608629,30,42.36900531319632,31,39.90237488587566,32,36.55329314545494,33,36.55378946054666,34,37.129951856724176,35,38.339523348822,36,37.008336494956396,37,35.946145398902786,38,33.419949102619654,39,36.05083670858505,40,34.386800221215495,41,34.28182741053608,42,31.1521467117864,43,31.545255965750684,44,31.38794056760188,45,32.535403348288895,46,32.24003991331459,47,28.4476340201683,48,31.72044639796222,49,28.609602693272418,50,31.681323435917996,51,29.637602578394407,52,26.647068501734374,53,28.983994244100575,54,24.48077149787702,55.00000000000001,21.32576726143015,56.00000000000001,22.795452438341492,56.99999999999999,22.65096039530884,57.99999999999999,22.240838207424098,59,20.738150221981822,60,21.088994482317748,61,21.494937530045032,62,18.522865614899974,63,15.606616116530025,64,16.300830846635527,65,17.309447711757585,66,13.51997109109343,67,11.156800234434417,68,14.56960384397643,69,14.336926353931101,70,13.116178329766425,71,10.60441460423841,72,8.792538637337621,73,8.203534920761225,74,6.700724944150194,75,5.742942634510584,76,7.240784233099495,77,5.3396761006430875,78,3.3253748582220743,79,1.1528632797560445,80,2.2443935946026117,81,2.1914005641767265,82,0.6267685995428707,83,0,84,2.12139567757742,85,0.23880575713824959,86,3.1578194961667694,87,2.3138746684794653,88,3.1340165522277474,89,1.8098302088046636,90,2.728447215808427,91,1.2256181302629066,92,1.5062900067071117,93,0.050540991741554464,94,2.4034696153692137,95,4.264307182972615,96,3.7303389822257227,97,4.268182599970139,98,4.683496444017987,99,4.815686587056889" fill="none" stroke="red" stroke-width="1"/></svg>